<?xml version="1.0" encoding="UTF-8" standalone="no" ?>
<!DOCTYPE svg PUBLIC "-//W3C//DTD SVG 1.1//EN" "http://www.w3.org/Graphics/SVG/1.1/DTD/svg11.dtd">
<svg xmlns="http://www.w3.org/2000/svg" xmlns:xlink="http://www.w3.org/1999/xlink" version="1.1" width="900" height="900" viewBox="0 0 900 900" xml:space="preserve">
<desc>Created with Fabric.js 3.6.6</desc>
<defs>
</defs>
<g transform="matrix(7.29 0 0 7.49 450.25 449.3)"  >
<polygon style="stroke: rgb(49,55,61); stroke-width: 20; stroke-dasharray: none; stroke-linecap: butt; stroke-dashoffset: 0; stroke-linejoin: round; stroke-miterlimit: 4; fill: rgb(49,55,61); fill-rule: nonzero; opacity: 1;"  points="-50,-50 -50,50 50,50 50,-50 " />
</g>
<g transform="matrix(1 0 0 1 447.7 449.24)"  >
<g style=""   >
		<g transform="matrix(1 0 0 1 0 0)" id="Capa_1"  >
<path style="stroke: none; stroke-width: 1; stroke-dasharray: none; stroke-linecap: butt; stroke-dashoffset: 0; stroke-linejoin: miter; stroke-miterlimit: 4; fill: rgb(105,195,80); fill-rule: nonzero; opacity: 1;"  transform=" translate(-240.01, -240.01)" d="M 479.699 269.776 c 0.31 -1.394 0.236 -2.846 -0.216 -4.2 c -5.486 -79.265 -71.075 -140.943 -150.528 -141.552 C 302.437 35.134 208.88 -15.43 119.99 11.088 C 31.099 37.606 -19.464 131.163 7.053 220.053 c 13.962 46.801 47.603 85.207 92.158 105.211 c -15.758 8.43 -30.397 18.802 -43.576 30.872 l -22.824 20.92 c -9.772 8.956 -10.434 24.137 -1.478 33.909 c 1.001 1.092 2.101 2.09 3.286 2.979 l 25.728 19.296 c 37.034 27.658 81.995 42.644 128.216 42.736 h 22.896 c 46.216 -0.096 91.171 -15.082 128.2 -42.736 l 9.056 -6.792 c 75.275 -10.194 131.394 -74.51 131.296 -150.472 C 480.011 273.88 479.779 271.848 479.699 269.776 z M 437.747 195.976 c 14.481 19.724 23.329 43.013 25.6 67.376 l -6.784 3.392 l -39.28 -26.184 l 12.76 -44.584 H 437.747 z M 383.619 152.016 c 15.127 6.775 28.893 16.25 40.624 27.96 h -0.232 c -3.572 0.003 -6.709 2.373 -7.688 5.808 l -14.992 52.464 l -25.704 11.856 l -39.616 -26.408 v -31.552 l 44.592 -31.2 C 383.44 158.939 384.659 155.332 383.619 152.016 z M 202.915 189.84 c -0.858 0.701 -1.561 1.573 -2.064 2.56 c -0.093 0.286 -0.171 0.577 -0.232 0.872 l -21.296 -21.296 l 25.416 -25.416 c 6.76 6.146 14.008 11.732 21.672 16.704 h -0.016 C 217.563 171.182 209.684 180.1 202.915 189.84 z M 192.387 207.656 c -9.072 17.951 -14.461 37.535 -15.848 57.6 c -7.401 -20.947 -18.918 -40.202 -33.872 -56.632 l 25.328 -25.36 L 192.387 207.656 z M 211.275 206.552 l 6.4 3.2 l 12.912 32.272 l -32.176 32.216 l -6.176 -3.088 C 193.02 248.356 199.571 226.13 211.275 206.552 z M 196.427 291.096 c 3.08 1.537 6.799 0.932 9.232 -1.504 l 36.272 -36.264 l 31.464 12.584 l 14.92 52.216 c 0.145 0.405 0.328 0.796 0.544 1.168 c -27.883 -12.75 -58.188 -19.34 -88.848 -19.32 c -1.888 0 -3.768 0.08 -5.656 0.128 l -0.016 -0.04 c -0.64 -3.584 -1.248 -7.2 -1.6 -10.816 L 196.427 291.096 z M 279.075 250.984 l -32.912 -13.168 l -14.72 -36.8 c -0.728 -1.823 -2.1 -3.315 -3.856 -4.192 l -7.2 -3.616 c 13.685 -17.811 31.551 -31.973 52.016 -41.232 c -1.04 3.315 0.179 6.923 3.016 8.928 l 44.592 31.24 v 31.552 L 279.075 250.984 z M 328.011 237.576 l 37.872 25.304 c 0.064 0.168 0.048 0.344 0.128 0.512 c 0.147 0.277 0.313 0.545 0.496 0.8 l -12.528 43.784 h -51.936 l -12.736 -44.584 L 328.011 237.576 z M 364.435 145.08 v 0.04 l 2.08 6.168 l -38.504 26.92 l -38.504 -26.96 l 2.08 -6.168 C 315.393 138.275 340.629 138.275 364.435 145.08 z M 312.507 124.776 c -26.319 2.722 -51.461 12.314 -72.904 27.816 c -8.384 -5.016 -16.265 -10.827 -23.536 -17.352 l 64.888 -64.864 C 295.154 86.109 305.902 104.639 312.507 124.776 z M 269.547 59.12 l -64.8 64.8 c -22.652 -25.115 -36.251 -57.086 -38.632 -90.824 l -0.928 -12.912 C 203.657 19.431 240.972 33.353 269.547 59.12 z M 149.235 21.352 l 0.92 12.88 c 2.641 37.585 17.881 73.18 43.256 101.032 l -25.4 25.4 L 66.475 59.12 C 89.524 38.325 118.422 25.137 149.235 21.352 z M 55.163 70.432 l 101.536 101.544 l -25.336 25.336 c -27.878 -25.365 -63.496 -40.586 -101.096 -43.2 l -12.888 -0.92 C 21.169 122.378 34.362 93.48 55.163 70.432 z M 16.219 169.152 l 12.912 0.92 c 33.747 2.358 65.737 15.934 90.88 38.568 l -64.872 64.88 C 29.379 244.938 15.463 207.623 16.219 169.152 z M 66.363 284.944 l 65 -64.968 c 20.615 22.97 33.712 51.694 37.536 82.32 c -17.069 2.501 -33.77 7.067 -49.736 13.6 C 99.651 309.255 81.689 298.726 66.363 284.944 z M 356.915 400.152 c -0.334 0.364 -0.701 0.696 -1.096 0.993 l -25.768 19.304 c -34.255 25.579 -75.841 39.44 -118.592 39.528 h -22.896 c -42.751 -0.088 -84.337 -13.949 -118.592 -39.528 l -25.736 -19.304 c -3.535 -2.651 -4.252 -7.665 -1.601 -11.2 c 0.296 -0.395 0.629 -0.762 0.993 -1.096 l 22.784 -20.92 c 16.287 -14.844 34.945 -26.855 55.2 -35.536 c 1.215 -0.227 2.36 -0.733 3.344 -1.48 c 70.836 -29.257 152.207 -14.822 208.656 37.016 l 22.816 20.92 C 359.683 391.835 359.902 396.895 356.915 400.152 z M 344.387 356.136 c -13.864 -12.696 -29.342 -23.509 -46.032 -32.16 h 58.344 l 17.6 17.6 l -14.416 28.8 L 344.387 356.136 z M 372.867 404.304 L 372.867 404.304 c 3.234 -6.956 2.756 -15.072 -1.272 -21.6 l 17.36 -34.728 h 46.112 l 3.56 7.12 C 422.328 377.909 399.351 395.103 372.867 404.304 z M 448.467 339.04 l -1.256 -2.64 c -1.362 -2.725 -4.153 -4.441 -7.2 -4.424 h -52.688 l -18.328 -18.328 l 14.104 -49.368 l 24.2 -11.16 l 44.272 29.512 c 2.384 1.588 5.435 1.78 8 0.504 l 4.184 -2.096 C 463.054 301.273 457.83 321.091 448.467 339.04 z" stroke-linecap="round" />
</g>
		<g transform="matrix(1 0 0 1 -47.99 147.97)" id="Capa_1"  >
<path style="stroke: none; stroke-width: 1; stroke-dasharray: none; stroke-linecap: butt; stroke-dashoffset: 0; stroke-linejoin: miter; stroke-miterlimit: 4; fill: rgb(105,195,80); fill-rule: nonzero; opacity: 1;"  transform=" translate(-192.01, -387.98)" d="M 272.011 379.976 h -8 v -8 c 0 -4.418 -3.582 -8 -8 -8 s -8 3.582 -8 8 v 8 h -16 v -8 c 0 -4.418 -3.582 -8 -8 -8 s -8 3.582 -8 8 v 8 h -16 v -8 c 0 -4.418 -3.582 -8 -8 -8 s -8 3.582 -8 8 v 8 h -16 v -8 c 0 -4.418 -3.582 -8 -8 -8 s -8 3.582 -8 8 v 8 h -16 v -8 c 0 -4.418 -3.582 -8 -8 -8 c -4.418 0 -8 3.582 -8 8 v 8 h -8 c -4.418 0 -8 3.582 -8 8 s 3.582 8 8 8 h 8 v 8 c 0 4.418 3.582 8 8 8 c 4.418 0 8 -3.582 8 -8 v -8 h 16 v 8 c 0 4.418 3.582 8 8 8 s 8 -3.582 8 -8 v -8 h 16 v 8 c 0 4.418 3.582 8 8 8 s 8 -3.582 8 -8 v -8 h 16 v 8 c 0 4.418 3.582 8 8 8 s 8 -3.582 8 -8 v -8 h 16 v 8 c 0 4.418 3.582 8 8 8 s 8 -3.582 8 -8 v -8 h 8 c 4.418 0 8 -3.582 8 -8 S 276.429 379.976 272.011 379.976 z" stroke-linecap="round" />
</g>
</g>
</g>
</svg>