<svg id="Capa_1" enable-background="new 0 0 512.001 512.001" height="512" viewBox="0 0 512.001 512.001" width="512" xmlns="http://www.w3.org/2000/svg" style="fill: rgb(105, 195, 80);"><path d="m225 345.001c-8.284 0-15 6.716-15 15 0 24.813-20.187 45-45 45s-45-20.187-45-45c0-8.284-6.716-15-15-15s-15 6.716-15 15c0 41.355 33.645 75 75 75s75-33.645 75-75c0-8.285-6.715-15-15-15z"/><path d="m105 262.001c8.271 0 15 6.729 15 15 0 8.284 6.716 15 15 15s15-6.716 15-15c0-24.813-20.187-45-45-45s-45 20.187-45 45c0 8.284 6.716 15 15 15s15-6.716 15-15c0-8.271 6.729-15 15-15z"/><path d="m347 210.001c-41.355 0-75 33.645-75 75 0 8.284 6.716 15 15 15s15-6.716 15-15c0-24.813 20.187-45 45-45s45 20.187 45 45c0 8.284 6.716 15 15 15s15-6.716 15-15c0-41.355-33.645-75-75-75z"/><path d="m407 170.001c24.813 0 45-20.187 45-45 0-8.284-6.716-15-15-15s-15 6.716-15 15c0 8.271-6.729 15-15 15s-15-6.729-15-15c0-8.284-6.716-15-15-15s-15 6.716-15 15c0 24.813 20.187 45 45 45z"/><path d="m332 125.001c0-8.284-6.716-15-15-15s-15 6.716-15 15c0 8.271-6.729 15-15 15s-15-6.729-15-15c0-8.284-6.716-15-15-15s-15 6.716-15 15c0 24.813 20.187 45 45 45s45-20.187 45-45z"/><path d="m504.516 2.019c-4.632-2.682-10.343-2.692-14.984-.027-30.2 17.34-79.442 38.009-142.532 38.009-34.823 0-87.818-6.594-142.531-38.008-4.642-2.666-10.352-2.656-14.984.027-4.633 2.681-7.485 7.628-7.485 12.981v146.469c-5.68.341-11.362.531-17 .531-34.823 0-87.818-6.594-142.531-38.008-4.642-2.666-10.352-2.656-14.984.027-4.633 2.681-7.485 7.628-7.485 12.981v164.758c0 98.189 66.261 184.436 161.135 209.735 1.266.337 2.565.506 3.865.506s2.599-.169 3.865-.506c36.147-9.639 69.349-28.559 96.016-54.714 22.116-21.692 39.35-47.976 50.496-76.748 8.939 3.736 18.201 6.913 27.759 9.462 1.266.337 2.565.506 3.865.506s2.599-.169 3.865-.506c94.873-25.3 161.134-111.546 161.134-209.735v-164.758c0-5.353-2.852-10.3-7.484-12.982zm-260.642 433.343c-22.022 21.6-49.222 37.474-78.874 46.07-79.694-23.082-135-96.392-135-179.673v-140.016c52.256 24.676 101.32 30.258 135 30.258 5.749 0 11.539-.165 17.329-.485 3.963 73.228 44.704 138.55 106.119 174.989-9.556 25.857-24.815 49.477-44.574 68.857zm238.126-255.603c0 83.281-55.306 156.591-135 179.673-79.694-23.083-135-96.392-135-179.673v-4.518c0-.016 0-.031 0-.046v-135.452c52.256 24.676 101.32 30.258 135 30.258 55.777 0 101.757-14.623 135-30.282z"/></svg>
