<svg id="Layer_1" enable-background="new 0 0 511.956 511.956" height="512" viewBox="0 0 511.956 511.956" width="512" xmlns="http://www.w3.org/2000/svg" style="fill: rgb(105, 195, 80);"><g><path d="m255.978 208.531c-67.861 0-123.071 55.21-123.071 123.071s55.209 123.07 123.071 123.07 123.071-55.209 123.071-123.07-55.21-123.071-123.071-123.071zm15 214.927v-19.711h-30v19.711c-39.327-6.399-70.456-37.529-76.856-76.855h19.711v-30h-19.711c6.4-39.327 37.529-70.457 76.856-76.856v19.711h30v-19.711c39.327 6.4 70.456 37.529 76.856 76.856h-19.711v30h19.711c-6.4 39.326-37.529 70.456-76.856 76.855z"/><path d="m407.417 177.26-7.943-11.8-12.205 7.306c-7.174 4.294-15.405 6.563-23.804 6.563h-.113c-24.611-.057-45.384-20.086-46.306-44.65-.027-.733-.038-1.464-.032-2.185.364-44.979-18.079-88.487-50.589-119.36l-14.111-13.134-9.375 16.484c-21.089 37.08-52.18 65.272-82.249 92.537-53.632 48.631-109.09 98.918-109.09 198.557 0 112.694 91.683 204.378 204.377 204.378s204.377-91.684 204.377-204.378c.001-47.869-22.942-85.759-52.937-130.318zm-151.439 304.696c-96.152 0-174.377-78.226-174.377-174.378 0-39.265 9.444-71.768 29.722-102.29 18.389-27.679 43.226-50.2 69.521-74.043 27.206-24.669 55.203-50.056 77.414-82.688 18.683 23.594 29.004 53.229 28.758 83.7-.009 1.183.009 2.376.053 3.547.74 19.73 9.043 38.209 23.38 52.032 14.328 13.814 33.092 21.447 52.835 21.492h.184c8.979 0 17.846-1.579 26.2-4.625 24.177 36.635 40.69 66.849 40.69 102.874-.003 96.153-78.228 174.379-174.38 174.379z"/><path d="m270.978 286.457h-30v60.146h47.5v-30h-17.5z"/></g></svg>
