<?xml version="1.0" encoding="iso-8859-1"?>
<!-- Generator: Adobe Illustrator 19.0.0, SVG Export Plug-In . SVG Version: 6.00 Build 0)  -->
<svg version="1.1" id="Capa_1" xmlns="http://www.w3.org/2000/svg" xmlns:xlink="http://www.w3.org/1999/xlink" x="0px" y="0px"
	 viewBox="0 0 384 384" style="enable-background:new 0 0 384 384;fill: rgb(105, 195, 80);" xml:space="preserve">
<g>
	<g>
		<path d="M237.159,232c16.352-13.208,26.848-33.392,26.848-56c0-39.696-32.296-72-72-72c-39.704,0-72,32.296-72,72
			c0,22.608,10.496,42.792,26.848,56c-16.352,13.208-26.848,33.392-26.848,56v96h144v-96
			C264.007,265.392,253.511,245.208,237.159,232z M232.007,352h-80v-64c0-22.056,17.944-40,40-40c22.056,0,40,17.944,40,40V352z
			 M192.007,216c-22.056,0-40-17.944-40-40c0-22.056,17.952-40,40-40c22.048,0,40,17.944,40,40
			C232.007,198.056,214.063,216,192.007,216z"/>
	</g>
</g>
<g>
	<g>
		<path d="M316.455,51.552C283.215,18.312,239.023,0,192.007,0S100.799,18.312,67.551,51.552
			c-68.624,68.624-68.624,180.28,0,248.896l11.312,11.32l22.632-22.632l-11.32-11.312c-56.144-56.152-56.144-147.504,0-203.648
			C117.383,46.984,153.543,32,192.007,32s74.624,14.984,101.824,42.176c56.144,56.144,56.144,147.504,0,203.648l-11.312,11.312
			l22.624,22.632l11.312-11.32C385.071,231.824,385.071,120.168,316.455,51.552z"/>
	</g>
</g>
<g>
</g>
<g>
</g>
<g>
</g>
<g>
</g>
<g>
</g>
<g>
</g>
<g>
</g>
<g>
</g>
<g>
</g>
<g>
</g>
<g>
</g>
<g>
</g>
<g>
</g>
<g>
</g>
<g>
</g>
</svg>
